/* XPM */
static char * compile_xpm[] = {
"24 24 242 2",
"  	c None",
". 	c #999A96",
"+ 	c #9D9E98",
"@ 	c #8E8F89",
"# 	c #EBEBEB",
"$ 	c #535353",
"% 	c #9D9E9C",
"& 	c #9D9E99",
"* 	c #C5C6C1",
"= 	c #9A9B95",
"- 	c #686867",
"; 	c #D7D7D7",
"> 	c #5D5D5D",
", 	c #A8A8A8",
"' 	c #B1B1B1",
") 	c #9B9C97",
"! 	c #666764",
"~ 	c #C6C7C1",
"{ 	c #C5C5C5",
"] 	c #3D3D3D",
"^ 	c #C8C8C8",
"/ 	c #686868",
"( 	c #E3E3E3",
"_ 	c #DADADA",
": 	c #8D8D8D",
"< 	c #BABABA",
"[ 	c #484848",
"} 	c #545452",
"| 	c #EEEFEA",
"1 	c #AAABA5",
"2 	c #A3A49F",
"3 	c #D1D1D1",
"4 	c #202020",
"5 	c #8B8B8B",
"6 	c #E5E5E5",
"7 	c #D8D8D8",
"8 	c #DDDDDD",
"9 	c #6E6E6E",
"0 	c #AFAFAF",
"a 	c #D2D2D2",
"b 	c #B7B7B5",
"c 	c #A2A3A0",
"d 	c #BDBEB9",
"e 	c #53544F",
"f 	c #DFE0DB",
"g 	c #A2A2A1",
"h 	c #1E1E1E",
"i 	c #6D6D6D",
"j 	c #EDEDED",
"k 	c #E9E9E9",
"l 	c #868686",
"m 	c #595959",
"n 	c #DDDDDB",
"o 	c #A9A9A8",
"p 	c #A8A9A4",
"q 	c #F7F7F2",
"r 	c #C1C2BB",
"s 	c #BABAB7",
"t 	c #61615F",
"u 	c #676766",
"v 	c #838280",
"w 	c #A9A9A9",
"x 	c #818081",
"y 	c #C7C5C8",
"z 	c #666468",
"A 	c #CECCCE",
"B 	c #FFFEFA",
"C 	c #A8A59E",
"D 	c #413D36",
"E 	c #D2CBC4",
"F 	c #E3DFD7",
"G 	c #C3BEB9",
"H 	c #B4B2AD",
"I 	c #3B3A37",
"J 	c #6C6C6A",
"K 	c #CBCBC9",
"L 	c #A5A5A4",
"M 	c #A3A3A1",
"N 	c #C9C8C6",
"O 	c #E0DEE1",
"P 	c #CBC9CE",
"Q 	c #3A383A",
"R 	c #34302E",
"S 	c #2B2921",
"T 	c #777569",
"U 	c #423E37",
"V 	c #A7A29E",
"W 	c #D9D4CF",
"X 	c #D6D2CD",
"Y 	c #EAE7E2",
"Z 	c #615F5C",
"` 	c #84837F",
" .	c #33322E",
"..	c #E3E0E3",
"+.	c #D9D7D9",
"@.	c #BBBAB8",
"#.	c #B9B8B3",
"$.	c #BEBEB7",
"%.	c #BEBCB6",
"&.	c #686461",
"*.	c #6F6C67",
"=.	c #D5D3CE",
"-.	c #E3E0DB",
";.	c #D5D1CB",
">.	c #C6C3BC",
",.	c #9A9691",
"'.	c #5C5B57",
").	c #E2E4E3",
"!.	c #E1E3E0",
"~.	c #DDDDDA",
"{.	c #807F7C",
"].	c #40403B",
"^.	c #656261",
"/.	c #FAF5F0",
"(.	c #E3DDD4",
"_.	c #C1BBB3",
":.	c #CFCDC8",
"<.	c #B4B3AF",
"[.	c #2D2C2B",
"}.	c #A2AAAC",
"|.	c #2A2E2F",
"1.	c #989A99",
"2.	c #363632",
"3.	c #5E5C56",
"4.	c #D2CFC7",
"5.	c #EBE5DE",
"6.	c #C5C3BD",
"7.	c #D8D7D2",
"8.	c #C9C8C5",
"9.	c #51504D",
"0.	c #B1B0AE",
"a.	c #667075",
"b.	c #7C8C94",
"c.	c #87969E",
"d.	c #525D63",
"e.	c #2F363A",
"f.	c #BCBFBE",
"g.	c #ACADA9",
"h.	c #504E4B",
"i.	c #87827C",
"j.	c #DDDCD5",
"k.	c #E5E5DF",
"l.	c #C7C6C2",
"m.	c #D5D4D0",
"n.	c #BAB9B4",
"o.	c #757472",
"p.	c #A09F9D",
"q.	c #3A4347",
"r.	c #89949D",
"s.	c #5F7685",
"t.	c #879BA9",
"u.	c #5C6E7A",
"v.	c #0A0C0F",
"w.	c #D1D5D3",
"x.	c #D1D0CC",
"y.	c #95928E",
"z.	c #63625B",
"A.	c #8A8B82",
"B.	c #FFFFFE",
"C.	c #333231",
"D.	c #75746F",
"E.	c #676664",
"F.	c #DADAD8",
"G.	c #E0E5E4",
"H.	c #4E575A",
"I.	c #A1ACB4",
"J.	c #6B7A86",
"K.	c #96B0C4",
"L.	c #849DB1",
"M.	c #142836",
"N.	c #112029",
"O.	c #DADAD9",
"P.	c #C6C6C0",
"Q.	c #51514B",
"R.	c #4D4D47",
"S.	c #C1C0BC",
"T.	c #878682",
"U.	c #E8E7E4",
"V.	c #62615F",
"W.	c #D6D5D3",
"X.	c #4C555C",
"Y.	c #83939F",
"Z.	c #687F92",
"`.	c #839FB7",
" +	c #8297B1",
".+	c #121E34",
"++	c #262D3B",
"@+	c #97979A",
"#+	c #DCDCDA",
"$+	c #A8A8A7",
"%+	c #666665",
"&+	c #737372",
"*+	c #414141",
"=+	c #838383",
"-+	c #D5D5D5",
";+	c #707477",
">+	c #919BA3",
",+	c #6D7E8B",
"'+	c #86A1B7",
")+	c #8EACC3",
"!+	c #192B41",
"~+	c #1E2A3A",
"{+	c #484C54",
"]+	c #CECECE",
"^+	c #A2A2A2",
"/+	c #BFBFBF",
"(+	c #C6CACD",
"_+	c #777D83",
":+	c #919DA7",
"<+	c #AFC2D1",
"[+	c #869EB1",
"}+	c #253E52",
"|+	c #21313D",
"1+	c #37414A",
"2+	c #DBDBDB",
"3+	c #E0E0E0",
"4+	c #EAEAEA",
"5+	c #20272C",
"6+	c #EAF3FA",
"7+	c #B9C6D0",
"8+	c #9CADBB",
"9+	c #425667",
"0+	c #122737",
"a+	c #263337",
"b+	c #808988",
"c+	c #676D72",
"d+	c #A7B0B9",
"e+	c #7A8590",
"f+	c #63717C",
"g+	c #293844",
"h+	c #1B2834",
"i+	c #A1A8A8",
"j+	c #F4F9FC",
"k+	c #495258",
"l+	c #525C64",
"m+	c #5B656C",
"n+	c #3A4146",
"o+	c #A1A6AB",
"p+	c #F2F8FC",
"q+	c #434A50",
"r+	c #33383C",
"s+	c #AAABAC",
"                                                ",
"                                                ",
"          . + @                   # $           ",
"        % & * = -               ; > , '         ",
"          ) ! ~ { ]           ^ / ( _ : <       ",
"    [ }   | 1 2 3 4           5 6 7 8 9         ",
"  0 a b c d e f g h a         i j k l           ",
"    m n o p q r s t u v       w a / x           ",
"    y z A B C D E F G H I J K L M N             ",
"    O P Q R S T U V W X Y Z `  .                ",
"      ..+.@.#.$.%.&.*.=.-.;.>.,.'.              ",
"          ).  !.  ~.{.].^./.(._.:.<.[.          ",
"                  }.|.1.2.3.4.5.6.7.8.9.0.      ",
"              a.b.c.d.e.f.g.h.i.j.k.l.m.n.o.p.  ",
"            q.r.s.t.u.v.  w.x.y.z.A.B.7.C.D.E.F.",
"        G.H.I.J.K.L.M.N.    O.  P.Q.R.S.T.U.V.W.",
"        X.Y.Z.`. +.+++@+          #+$+%+&+*+=+-+",
"      ;+>+,+'+)+!+~+{+              ( ]+, ^+/+  ",
"    (+_+:+<+[+}+|+1+                    2+3+4+  ",
"    5+6+7+8+9+0+a+b+                            ",
"    c+d+e+f+g+h+i+                              ",
"    j+k+l+m+n+o+                                ",
"      p+q+r+s+                                  ",
"                                                "};
