/* XPM */
static char * gud_xpm[] = {
"24 24 225 2",
"  	c None",
". 	c #040404",
"+ 	c #030303",
"@ 	c #000000",
"# 	c #4D4D4D",
"$ 	c #050505",
"% 	c #B3B3B3",
"& 	c #020202",
"* 	c #0E0E0E",
"= 	c #878787",
"- 	c #1E0303",
"; 	c #110000",
"> 	c #1C0101",
", 	c #1B0202",
"' 	c #200404",
") 	c #151A1A",
"! 	c #EFD5D5",
"~ 	c #FFEFEF",
"{ 	c #D1D5D5",
"] 	c #181818",
"^ 	c #780000",
"/ 	c #DD4444",
"( 	c #D60A0A",
"_ 	c #F08787",
": 	c #E53B3B",
"< 	c #720000",
"[ 	c #949898",
"} 	c #FF8B8B",
"| 	c #FF0000",
"1 	c #C60000",
"2 	c #E50000",
"3 	c #D10000",
"4 	c #620707",
"5 	c #8E9C9C",
"6 	c #808080",
"7 	c #9C0000",
"8 	c #CCB3B3",
"9 	c #E30707",
"0 	c #CE0505",
"a 	c #FB2222",
"b 	c #640202",
"c 	c #C3D4D4",
"d 	c #FA2A2A",
"e 	c #E6D1D1",
"f 	c #D2C0C0",
"g 	c #F20000",
"h 	c #E50404",
"i 	c #DD0404",
"j 	c #510000",
"k 	c #EEF2F2",
"l 	c #C2C2C2",
"m 	c #080404",
"n 	c #B40404",
"o 	c #DD0000",
"p 	c #D30404",
"q 	c #CD0404",
"r 	c #DA0404",
"s 	c #480000",
"t 	c #DEF1F1",
"u 	c #FB1313",
"v 	c #FDFFFF",
"w 	c #FBFFFF",
"x 	c #F70000",
"y 	c #CA0404",
"z 	c #D00404",
"A 	c #BE0404",
"B 	c #680404",
"C 	c #F2F2F2",
"D 	c #4E4E4E",
"E 	c #000404",
"F 	c #260404",
"G 	c #C80303",
"H 	c #5D0404",
"I 	c #8F0404",
"J 	c #C00404",
"K 	c #410202",
"L 	c #2E4242",
"M 	c #F28A8A",
"N 	c #FA0808",
"O 	c #EF7B7B",
"P 	c #E36E6E",
"Q 	c #FE0000",
"R 	c #E40404",
"S 	c #FFFFFF",
"T 	c #7C7C7C",
"U 	c #1A0404",
"V 	c #B90303",
"W 	c #C30404",
"X 	c #FA0404",
"Y 	c #FE0404",
"Z 	c #FF0404",
"` 	c #D70101",
" .	c #769393",
"..	c #DA2222",
"+.	c #D60303",
"@.	c #FF0101",
"#.	c #E30404",
"$.	c #D10404",
"%.	c #C80404",
"&.	c #550404",
"*.	c #B10202",
"=.	c #364141",
"-.	c #1B0303",
";.	c #E60404",
">.	c #DF0404",
",.	c #770404",
"'.	c #EA0101",
").	c #749191",
"!.	c #DA2525",
"~.	c #D70404",
"{.	c #0B0404",
"].	c #CF0404",
"^.	c #FC0404",
"/.	c #CC0404",
"(.	c #280404",
"_.	c #242525",
":.	c #888888",
"<.	c #230303",
"[.	c #810404",
"}.	c #E00000",
"|.	c #739A9A",
"1.	c #FF1818",
"2.	c #780404",
"3.	c #7D0404",
"4.	c #980404",
"5.	c #6D0404",
"6.	c #121818",
"7.	c #8D8D8D",
"8.	c #210303",
"9.	c #C40404",
"0.	c #730404",
"a.	c #FD0404",
"b.	c #F40303",
"c.	c #580707",
"d.	c #E2D6D6",
"e.	c #790404",
"f.	c #620404",
"g.	c #F60404",
"h.	c #CB0404",
"i.	c #640404",
"j.	c #A40000",
"k.	c #CAD4D4",
"l.	c #090909",
"m.	c #230404",
"n.	c #850404",
"o.	c #EB0404",
"p.	c #F80404",
"q.	c #680000",
"r.	c #C3D1D1",
"s.	c #FF1515",
"t.	c #F80000",
"u.	c #380303",
"v.	c #380404",
"w.	c #F90404",
"x.	c #CE0000",
"y.	c #211516",
"z.	c #CFCECC",
"A.	c #190404",
"B.	c #E00404",
"C.	c #B80404",
"D.	c #F40404",
"E.	c #F10404",
"F.	c #910000",
"G.	c #929A9A",
"H.	c #FF9A9A",
"I.	c #FF0707",
"J.	c #E10000",
"K.	c #E70707",
"L.	c #BD9A9A",
"M.	c #979A95",
"N.	c #000044",
"O.	c #05004C",
"P.	c #870303",
"Q.	c #900404",
"R.	c #120404",
"S.	c #EE0404",
"T.	c #410404",
"U.	c #010505",
"V.	c #071A1A",
"W.	c #EFD6D6",
"X.	c #F0D5D5",
"Y.	c #161919",
"Z.	c #050500",
"`.	c #041EBB",
" +	c #03FDFF",
".+	c #032319",
"++	c #510303",
"@+	c #F70404",
"#+	c #150404",
"$+	c #3F0404",
"%+	c #3E0404",
"&+	c #250000",
"*+	c #0C0000",
"=+	c #032217",
"-+	c #0375C5",
";+	c #0400A2",
">+	c #000303",
",+	c #D60404",
"'+	c #7C0404",
")+	c #890404",
"!+	c #E80404",
"~+	c #870404",
"{+	c #E80303",
"]+	c #610303",
"^+	c #030021",
"/+	c #03049A",
"(+	c #0D0303",
"_+	c #F00303",
":+	c #E20000",
"<+	c #DD0202",
"[+	c #FB0404",
"}+	c #DE0303",
"|+	c #2F0404",
"1+	c #040414",
"2+	c #0D0404",
"3+	c #CD0303",
"4+	c #F50404",
"5+	c #F20101",
"6+	c #E28888",
"7+	c #FD2323",
"8+	c #AD0303",
"9+	c #570303",
"0+	c #5F0404",
"a+	c #600000",
"b+	c #620202",
"                                                ",
"                                                ",
"        .                     +                 ",
"        +                     +                 ",
"            .   @ . @ #   $ .                   ",
"              @ % @ & * =   @ @ @ @ @           ",
"  +         . - ; > , ' @ ) ! ~ ~ ~ { ]         ",
"  + +       ^ / ( _ : < [ } | 1 2 3 4 5 6       ",
"    +     7 8 9 0 a b c d e f g h i - j k l     ",
"    . + m n o p q r s t u v w x y z A B @ C D   ",
"      E F G H I J K L M N O P Q R R A B @ S T   ",
"      U V W X Y Z `  ...+.@.@.Z #.$.%.&.*.=.=   ",
"      -.;.>.Z ,.E '.).!.~.R {.{.;.].^./.(._.:.  ",
"      <.[.E Z %.,.}.|.1.Z 2.E E 3.z #.4.5.6.7.  ",
"    + 8.Z >.9.0.a.b.c.d.Q e.E E f.g.h.i.j.k.l.  ",
"  + . m.n.o.E E >.p.q.r.s.t.u.v.i w.G x.y.z.    ",
"+     A.Z Z B.C.Z D.E.F.G.H.I.| J.J.K.L.M.N.O.  ",
".       P.Y Z Q.R.Z S.T.U.V.W.~ ~ ~ X.Y.Z.`. +.+",
"+       ++@+>.Q.#+Z S.$+%+Z &+*+@ @ @     =+-+;+",
"      . >+,+'+Z )+^.!+~+Z #.{+]+E +         ^+/+",
"    .     (+_+Z i @+:+<+[+}+|+    +           1+",
"    .       2+3+4+5+6+7+8+&.      .             ",
"    + +       >+9+0+a+b+        + +             ",
"                                                "};
