/* XPM */
static char * nautilus_xpm[] = {
"24 24 276 2",
"  	c None",
". 	c #143E7A",
"+ 	c #153D79",
"@ 	c #345A8F",
"# 	c #5577A6",
"$ 	c #6E8FB9",
"% 	c #88AAD2",
"& 	c #4A6D9B",
"* 	c #1A417B",
"= 	c #4D71A2",
"- 	c #6789B4",
"; 	c #80A3CC",
"> 	c #7BA1CE",
", 	c #6593C8",
"' 	c #6292CB",
") 	c #5F93D3",
"! 	c #7F9DC2",
"~ 	c #486B9D",
"{ 	c #6384B1",
"] 	c #7C9EC8",
"^ 	c #7EA3CE",
"/ 	c #6996C9",
"( 	c #6091CA",
"_ 	c #6395D2",
": 	c #6E9CCF",
"< 	c #97B1AE",
"[ 	c #BCC48F",
"} 	c #E3D86C",
"| 	c #FFF7B6",
"1 	c #585A55",
"2 	c #5C7EAB",
"3 	c #739DCD",
"4 	c #5F91C9",
"5 	c #6395D1",
"6 	c #6999D2",
"7 	c #90AEB2",
"8 	c #B5C092",
"9 	c #DBD471",
"0 	c #F6E35D",
"a 	c #F1E065",
"b 	c #EEDF6B",
"c 	c #ECDE6D",
"d 	c #F9F0A6",
"e 	c #919182",
"f 	c #486B9C",
"g 	c #A5BFC6",
"h 	c #AEBC94",
"i 	c #D5D073",
"j 	c #F4E058",
"k 	c #F1DF5E",
"l 	c #EEDE65",
"m 	c #EDDE69",
"n 	c #EBDE6D",
"o 	c #ECDE6F",
"p 	c #ECDF73",
"q 	c #ECDF75",
"r 	c #F0E37C",
"s 	c #B3B3AB",
"t 	c #5072A2",
"u 	c #5E7FAD",
"v 	c #5F80AE",
"w 	c #3C6193",
"x 	c #605F54",
"y 	c #FFF7B0",
"z 	c #EDDC5A",
"A 	c #ECDD63",
"B 	c #EBDD68",
"C 	c #ECDD6A",
"D 	c #ECDE70",
"E 	c #EDDF73",
"F 	c #EDE076",
"G 	c #ECE078",
"H 	c #EDE17C",
"I 	c #EEE078",
"J 	c #E8E2C1",
"K 	c #517399",
"L 	c #6191CA",
"M 	c #5E8DC7",
"N 	c #6385B2",
"O 	c #CECCB8",
"P 	c #ECDC5E",
"Q 	c #ECDD6B",
"R 	c #ECDE71",
"S 	c #EDDF74",
"T 	c #ECE079",
"U 	c #EEE17F",
"V 	c #EDE281",
"W 	c #EDE282",
"X 	c #FFFBC9",
"Y 	c #607A6C",
"Z 	c #7FC19E",
"` 	c #7BBD99",
" .	c #8399B0",
"..	c #A7A79A",
"+.	c #F1E57F",
"@.	c #ECE077",
"#.	c #EDE079",
"$.	c #EEE285",
"%.	c #EEE387",
"&.	c #EEE389",
"*.	c #F7EFAA",
"=.	c #A0A88E",
"-.	c #88D965",
";.	c #8BDF64",
">.	c #B6B3B3",
",.	c #FCF3B4",
"'.	c #ECDF74",
").	c #EDE07A",
"!.	c #EEE180",
"~.	c #EDE283",
"{.	c #EEE388",
"].	c #EFE48B",
"^.	c #EEE48E",
"/.	c #EFE591",
"(.	c #F1E68F",
"_.	c #BFBBBC",
":.	c #83C866",
"<.	c #92E16E",
"[.	c #BAB6B5",
"}.	c #053277",
"|.	c #5E605A",
"1.	c #F6F0C3",
"2.	c #EDE078",
"3.	c #EEE385",
"4.	c #EFE48C",
"5.	c #F0E594",
"6.	c #EFE596",
"7.	c #EFE593",
"8.	c #F8F2D2",
"9.	c #769D62",
"0.	c #9AE575",
"a.	c #B9B5B2",
"b.	c #6F91BB",
"c.	c #6586B3",
"d.	c #476B9C",
"e.	c #BABAB4",
"f.	c #EFE37E",
"g.	c #EEE286",
"h.	c #EFE490",
"i.	c #EFE592",
"j.	c #F0E693",
"k.	c #F3E99B",
"l.	c #FBF3BE",
"m.	c #FFFDD9",
"n.	c #DCD4C9",
"o.	c #739460",
"p.	c #A2EA7D",
"q.	c #BBB5B2",
"r.	c #558CC3",
"s.	c #6094CB",
"t.	c #729DCD",
"u.	c #5D7EAC",
"v.	c #B1B09D",
"w.	c #F6EDA7",
"x.	c #EEE38A",
"y.	c #EEE48D",
"z.	c #EFE48D",
"A.	c #F2E792",
"B.	c #F8F0B4",
"C.	c #FFFCD5",
"D.	c #EAE5CF",
"E.	c #B6B3B4",
"F.	c #99A48A",
"G.	c #6E895F",
"H.	c #84B36B",
"I.	c #9FDA7F",
"J.	c #A6E882",
"K.	c #B1B8BB",
"L.	c #C46349",
"M.	c #AE8486",
"N.	c #A2AAC1",
"O.	c #4A6994",
"P.	c #FFFDD0",
"Q.	c #F6EDA5",
"R.	c #FFFCCD",
"S.	c #F2ECD0",
"T.	c #BCB8BA",
"U.	c #A2AA93",
"V.	c #718963",
"W.	c #80A96A",
"X.	c #97D178",
"Y.	c #A4DF83",
"Z.	c #AFEB8C",
"`.	c #AFEA8D",
" +	c #AFE88D",
".+	c #ACEA88",
"++	c #B0B8BC",
"@+	c #D7643C",
"#+	c #EA6F44",
"$+	c #FFBBA2",
"%+	c #A2A298",
"&+	c #A5A499",
"*+	c #7E7D7D",
"=+	c #7BA165",
"-+	c #96CC77",
";+	c #A3DC82",
">+	c #B0EA8D",
",+	c #B2EC90",
"'+	c #B2E990",
")+	c #B2EA90",
"!+	c #B3E991",
"~+	c #B4E992",
"{+	c #B5EA92",
"]+	c #B4EC8E",
"^+	c #AFB7BA",
"/+	c #D86D46",
"(+	c #EA754B",
"_+	c #DAC0B4",
":+	c #B5B3B5",
"<+	c #B0F187",
"[+	c #B2EC8D",
"}+	c #B3EC8E",
"|+	c #B4EC8F",
"1+	c #B5EC90",
"2+	c #B6ED91",
"3+	c #B7ED92",
"4+	c #B8ED93",
"5+	c #B9EE95",
"6+	c #B8F090",
"7+	c #B1B9BE",
"8+	c #DA754E",
"9+	c #F08A63",
"0+	c #ABA8A4",
"a+	c #8C9484",
"b+	c #B3B2B3",
"c+	c #B4B4B5",
"d+	c #AFB3B7",
"e+	c #AFB5B9",
"f+	c #B1B8BC",
"g+	c #918D7D",
"h+	c #DC7D58",
"i+	c #F9B89E",
"j+	c #A09A94",
"k+	c #E4926F",
"l+	c #DF855F",
"m+	c #DF8760",
"n+	c #DF8762",
"o+	c #DF8761",
"p+	c #DE8660",
"q+	c #DE8560",
"r+	c #DE855F",
"s+	c #DE8762",
"t+	c #EE9169",
"u+	c #FDD2BF",
"v+	c #5B5D57",
"w+	c #908E88",
"x+	c #FBD7C6",
"y+	c #FFCEB7",
"z+	c #F9AE8B",
"A+	c #F49B71",
"B+	c #F39E75",
"C+	c #F39E77",
"D+	c #F29F78",
"E+	c #F29E77",
"F+	c #F2986E",
"G+	c #CBC0B9",
"H+	c #5C5E5A",
"I+	c #A7A39C",
"J+	c #CCC3BC",
"K+	c #FFDBC9",
"L+	c #FEC9AE",
"M+	c #F8AA84",
"N+	c #F4A37A",
"O+	c #F3A57D",
"P+	c #F3A57E",
"Q+	c #F8B18D",
"R+	c #A8A39D",
"S+	c #575C55",
"T+	c #938D87",
"U+	c #B0AFAB",
"V+	c #E5D0C4",
"W+	c #FFDDC9",
"X+	c #FDC4A4",
"Y+	c #FFD8C0",
"Z+	c #948E87",
"`+	c #ABA6A0",
"                        .                       ",
"                + @ # $ % &                     ",
"        *   = - ; > , ' ) !                     ",
"    ~ { ] ^ / ( _ : < [ } | 1                   ",
"  2 3 4 5 6 7 8 9 0 a b c d e                   ",
"  f g h i j k l m n o p q r s t u v w           ",
"  x y z A B C n D E F G H I J K L M N           ",
"    O P Q n R S F T H U V W X Y Z `  .          ",
"    ..+.D E @.#.H U W $.%.&.*.=.-.;.>.          ",
"      ,.'.).H !.~.$.{.].^./.(._.:.<.[.}.        ",
"    |.1.2.U ~.3.{.4.^./.5.6.7.8.9.0.a.b.c.d.    ",
"      e.f.g.{.4.^.h.i.j.k.l.m.n.o.p.q.r.s.t.u.  ",
"      v.w.x.y.z.A.B.C.D.E.F.G.H.I.J.K.L.M.N.O.  ",
"      |.P.Q.R.S.T.U.V.W.X.Y.Z.`. +.+++@+#+$+    ",
"        %+&+*+=+-+;+>+,+'+)+!+~+{+]+^+/+(+_+    ",
"            :+<+[+}+}+|+1+2+3+4+5+6+7+8+9+0+    ",
"            a+b+c+d+e+e+e+e+e+e+e+f+g+h+i+      ",
"                j+k+l+m+n+o+p+p+q+r+s+t+u+v+    ",
"                w+x+y+z+A+B+C+D+D+D+E+F+G+      ",
"                  H+  I+J+K+L+M+N+O+P+Q+R+      ",
"                          S+T+U+V+W+X+Y+        ",
"                                    Z+`+        ",
"                                                ",
"                                                "};
