/* XPM */
static char * xterm_xpm[] = {
"24 24 120 2",
"  	c None",
". 	c #FFFFFF",
"+ 	c #E0E0E2",
"@ 	c #909092",
"# 	c #949496",
"$ 	c #E1E0E2",
"% 	c #000000",
"& 	c #DCDCDC",
"* 	c #717170",
"= 	c #D4D4DF",
"- 	c #8D9092",
"; 	c #380000",
"> 	c #FF0000",
", 	c #3E0000",
"' 	c #8C8C8C",
") 	c #6E6E6E",
"! 	c #7F7F8C",
"~ 	c #840000",
"{ 	c #7F0000",
"] 	c #909090",
"^ 	c #77777F",
"/ 	c #C40000",
"( 	c #330000",
"_ 	c #D10000",
": 	c #E40000",
"< 	c #300000",
"[ 	c #909496",
"} 	c #400000",
"| 	c #8A0000",
"1 	c #890000",
"2 	c #460000",
"3 	c #8D8D88",
"4 	c #9A9D9E",
"5 	c #828888",
"6 	c #9B9B9B",
"7 	c #3F444B",
"8 	c #8B4A00",
"9 	c #974F00",
"0 	c #4A2300",
"a 	c #0E3B00",
"b 	c #2D9F00",
"c 	c #113D00",
"d 	c #3A6E9A",
"e 	c #193042",
"f 	c #13293C",
"g 	c #8F8E8D",
"h 	c #959597",
"i 	c #929292",
"j 	c #894700",
"k 	c #2D9D00",
"l 	c #2DA000",
"m 	c #54A0DF",
"n 	c #122230",
"o 	c #336289",
"p 	c #2F5F87",
"q 	c #8D8B8A",
"r 	c #7A7A83",
"s 	c #969696",
"t 	c #DE7300",
"u 	c #9A5000",
"v 	c #268500",
"w 	c #44F000",
"x 	c #0B2600",
"y 	c #326086",
"z 	c #35668F",
"A 	c #11212E",
"B 	c #31638D",
"C 	c #A3A3A3",
"D 	c #EB7900",
"E 	c #904A00",
"F 	c #492000",
"G 	c #2BA200",
"H 	c #32AF00",
"I 	c #3C73A0",
"J 	c #193144",
"K 	c #376F9D",
"L 	c #8D8B89",
"M 	c #717171",
"N 	c #CECED4",
"O 	c #878789",
"P 	c #010101",
"Q 	c #010000",
"R 	c #000200",
"S 	c #000201",
"T 	c #000102",
"U 	c #838383",
"V 	c #808081",
"W 	c #2D2D2D",
"X 	c #2C2C33",
"Y 	c #7C7C89",
"Z 	c #86868E",
"` 	c #8F8F96",
" .	c #8E8E96",
"..	c #7E7E8A",
"+.	c #878794",
"@.	c #808087",
"#.	c #808088",
"$.	c #86868D",
"%.	c #C6C6C7",
"&.	c #C2C2C2",
"*.	c #D2D2D2",
"=.	c #34343C",
"-.	c #DBDBE1",
";.	c #BEBEBE",
">.	c #BFBFBF",
",.	c #BBBBBB",
"'.	c #696969",
").	c #898992",
"!.	c #CECECE",
"~.	c #BDBDBD",
"{.	c #C7C7C7",
"].	c #C9C9C9",
"^.	c #D9D9DB",
"/.	c #ECECF4",
"(.	c #6C6C6E",
"_.	c #D8D8DA",
":.	c #7C7C7E",
"<.	c #808082",
"[.	c #767678",
"}.	c #89898C",
"                                                ",
"      . + @ # # # # # # # # # # # @ + .         ",
"      $ % % % % % % % % % % % % % % % & * =     ",
"      - ; > % % > , % % % % % % % % % ' ) . !   ",
"      # % ~ { { ~ % % % % % % % % % % ] ) . ^   ",
"      # % % > > % % % % % % % % % % % ] ) . ^   ",
"      # % % / / % % % % % % % % % % % ] ) . ^   ",
"      # % ( _ _ ( % % % % % % % % % % ] ) . ^   ",
"      # % : < < : % % % % % % % % % % ] ) . ^   ",
"      [ } | % % 1 2 % % % % % % % % % ] ) . ^   ",
"      3 4 5 6 7 8 9 0 a b c % d % e f g ) . ^   ",
"      h % i % % j % % k % l % m n o p q ) . r   ",
"      # % s % % t u % v w x % y z A B q ) .     ",
"      # % C % % D E F G % H % I J % K L M N     ",
"      O % % P Q % % % % R % S % % T % U V       ",
"      . W % % % % % % % % % % % % % W . X       ",
"      Y Z `  . . . . . . . . . . .` Z ..        ",
"                                                ",
"      +.@.@.@.@.@.@.@.@.@.@.@.@.@.@.#.$.%       ",
"      %.&.&.&.&.&.&.&.&.&.&.&.&.&.&.&.*.=.      ",
"    -.;.>.>.>.>.>.>.>.>.>.>.>.>.>.>.,.'.).      ",
"    !.~.{.{.{.{.{.{.{.{.{.{.{.{.~.].{.^.        ",
"  /.(._.:.<.<.<.<.<.<.<.<.<.<.:._.[.}.          ",
"                                                "};
